<?xml version="1.0" encoding="UTF-8" standalone="no"?>
<!-- Created with Inkscape (http://www.inkscape.org/) -->

<svg
   sodipodi:docname="spinner.svg"
   id="svg5"
   version="1.1"
   viewBox="0 0 64 64"
   height="64mm"
   width="64mm"
   inkscape:version="1.1.1 (c3084ef, 2021-09-22)"
   xmlns:inkscape="http://www.inkscape.org/namespaces/inkscape"
   xmlns:sodipodi="http://sodipodi.sourceforge.net/DTD/sodipodi-0.dtd"
   xmlns="http://www.w3.org/2000/svg"
   xmlns:svg="http://www.w3.org/2000/svg">
  <sodipodi:namedview
     id="namedview7"
     pagecolor="#ffffff"
     bordercolor="#666666"
     borderopacity="1.0"
     inkscape:pageshadow="2"
     inkscape:pageopacity="0.0"
     inkscape:pagecheckerboard="0"
     inkscape:document-units="mm"
     showgrid="false"
     inkscape:zoom="3.4767904"
     inkscape:cx="120.80107"
     inkscape:cy="120.94488"
     inkscape:window-width="1792"
     inkscape:window-height="1067"
     inkscape:window-x="0"
     inkscape:window-y="25"
     inkscape:window-maximized="0"
     inkscape:current-layer="layer1" />
  <defs
     id="defs2" />
  <g
     inkscape:label="Ebene 1"
     inkscape:groupmode="layer"
     id="layer1">
    <g
       inkscape:label="Rendered Gears"
       transform="matrix(0.37945358,0,0,0.37945358,32.000001,32)"
       id="g5695"
       style="stroke:none;fill:#ffffff;fill-opacity:0.25">
      <path
         id="path5691"
         style="fill:#ffffff;fill-opacity:0.25;stroke:none;stroke-width:0.379453"
         d="M 118.31641 0.18945312 L 117.15039 5.0546875 L 117.00391 6.8222656 L 117.10938 9.890625 L 110.25195 10.339844 L 109.95703 7.2832031 L 109.58008 5.5507812 L 107.78906 0.87890625 L 102.57617 1.5664062 L 102.05664 6.5410156 L 102.14062 8.3125 L 102.64648 11.339844 L 95.90625 12.681641 L 95.214844 9.6914062 L 94.615234 8.0214844 L 92.230469 3.6230469 L 87.152344 4.984375 L 87.285156 9.984375 L 87.601562 11.730469 L 88.498047 14.666016 L 81.988281 16.875 L 80.912109 14 L 80.099609 12.423828 L 77.162109 8.375 L 72.304688 10.386719 L 73.089844 15.328125 L 73.630859 17.017578 L 74.902344 19.810547 L 68.738281 22.851562 L 67.296875 20.140625 L 66.285156 18.683594 L 62.84375 15.052734 L 58.291016 17.681641 L 59.714844 22.478516 L 60.470703 24.082031 L 62.095703 26.685547 L 56.380859 30.503906 L 54.597656 28.005859 L 53.404297 26.693359 L 49.519531 23.542969 L 45.347656 26.744141 L 47.384766 31.3125 L 48.34375 32.804688 L 50.296875 35.173828 L 45.128906 39.705078 L 43.035156 37.460938 L 41.681641 36.314453 L 37.416016 33.699219 L 33.699219 37.416016 L 36.314453 41.681641 L 37.460938 43.035156 L 39.705078 45.128906 L 35.173828 50.296875 L 32.804688 48.34375 L 31.3125 47.384766 L 26.744141 45.347656 L 23.542969 49.519531 L 26.693359 53.404297 L 28.005859 54.597656 L 30.503906 56.380859 L 26.685547 62.095703 L 24.082031 60.470703 L 22.478516 59.714844 L 17.681641 58.291016 L 15.052734 62.84375 L 18.683594 66.285156 L 20.140625 67.296875 L 22.851562 68.738281 L 19.810547 74.902344 L 17.017578 73.630859 L 15.328125 73.089844 L 10.386719 72.304688 L 8.375 77.162109 L 12.423828 80.099609 L 14 80.912109 L 16.875 81.988281 L 14.666016 88.498047 L 11.730469 87.601562 L 9.984375 87.285156 L 4.984375 87.152344 L 3.6230469 92.230469 L 8.0214844 94.615234 L 9.6914062 95.214844 L 12.681641 95.90625 L 11.339844 102.64648 L 8.3125 102.14062 L 6.5410156 102.05664 L 1.5664062 102.57617 L 0.87890625 107.78906 L 5.5507812 109.58008 L 7.2832031 109.95703 L 10.339844 110.25195 L 9.890625 117.10938 L 6.8222656 117.00391 L 5.0546875 117.15039 L 0.18945312 118.31641 L 0.18945312 123.57422 L 5.0546875 124.73828 L 6.8222656 124.88672 L 9.890625 124.7793 L 10.339844 131.63867 L 7.2832031 131.93359 L 5.5507812 132.31055 L 0.87890625 134.09961 L 1.5664062 139.3125 L 6.5410156 139.83203 L 8.3125 139.74805 L 11.339844 139.24219 L 12.681641 145.98438 L 9.6914062 146.67578 L 8.0214844 147.27539 L 3.6230469 149.66016 L 4.984375 154.73828 L 9.984375 154.60352 L 11.730469 154.28906 L 14.666016 153.39258 L 16.875 159.90039 L 14 160.97656 L 12.423828 161.78906 L 8.375 164.72656 L 10.386719 169.58398 L 15.328125 168.79883 L 17.017578 168.25977 L 19.810547 166.98633 L 22.851562 173.15039 L 20.140625 174.59375 L 18.683594 175.60547 L 15.052734 179.04492 L 17.681641 183.59961 L 22.478516 182.17578 L 24.082031 181.41992 L 26.685547 179.79297 L 30.503906 185.50781 L 28.005859 187.29102 L 26.693359 188.48438 L 23.542969 192.37109 L 26.744141 196.54102 L 31.3125 194.50391 L 32.804688 193.54492 L 35.173828 191.59375 L 39.705078 196.76172 L 37.460938 198.85547 L 36.314453 200.20898 L 33.699219 204.47266 L 37.416016 208.19141 L 41.681641 205.57422 L 43.035156 204.42773 L 45.128906 202.18359 L 50.296875 206.7168 L 48.34375 209.08594 L 47.384766 210.57812 L 45.347656 215.14648 L 49.519531 218.34766 L 53.404297 215.19727 L 54.597656 213.88281 L 56.380859 211.38477 L 62.095703 215.20312 L 60.470703 217.80859 L 59.714844 219.41211 L 58.291016 224.20703 L 62.84375 226.83594 L 66.285156 223.20508 L 67.296875 221.74805 L 68.738281 219.03906 L 74.902344 222.07812 L 73.630859 224.87305 L 73.089844 226.5625 L 72.304688 231.50195 L 77.162109 233.51367 L 80.099609 229.46484 L 80.912109 227.88867 L 81.988281 225.01367 L 88.498047 227.22266 L 87.601562 230.1582 L 87.285156 231.9043 L 87.152344 236.9043 L 92.230469 238.26562 L 94.615234 233.86914 L 95.214844 232.19922 L 95.90625 229.20898 L 102.64648 230.54883 L 102.14062 233.57617 L 102.05664 235.34766 L 102.57617 240.32422 L 107.78906 241.00977 L 109.58008 236.33984 L 109.95703 234.60547 L 110.25195 231.55078 L 117.10938 232 L 117.00391 235.06836 L 117.15039 236.83594 L 118.31641 241.69922 L 123.57422 241.69922 L 124.73828 236.83594 L 124.88672 235.06836 L 124.7793 232 L 131.63867 231.55078 L 131.93359 234.60547 L 132.31055 236.33984 L 134.09961 241.00977 L 139.3125 240.32422 L 139.83203 235.34766 L 139.74805 233.57617 L 139.24219 230.54883 L 145.98438 229.20898 L 146.67578 232.19922 L 147.27539 233.86914 L 149.66016 238.26562 L 154.73828 236.9043 L 154.60352 231.9043 L 154.28906 230.1582 L 153.39258 227.22266 L 159.90039 225.01367 L 160.97656 227.88867 L 161.78906 229.46484 L 164.72656 233.51367 L 169.58398 231.50195 L 168.79883 226.5625 L 168.25977 224.87305 L 166.98633 222.07812 L 173.15039 219.03906 L 174.59375 221.74805 L 175.60547 223.20508 L 179.04492 226.83594 L 183.59961 224.20703 L 182.17578 219.41211 L 181.41992 217.80859 L 179.79297 215.20312 L 185.50781 211.38477 L 187.29102 213.88281 L 188.48438 215.19727 L 192.37109 218.34766 L 196.54102 215.14648 L 194.50391 210.57812 L 193.54492 209.08594 L 191.59375 206.7168 L 196.76172 202.18359 L 198.85547 204.42773 L 200.20898 205.57422 L 204.47266 208.19141 L 208.19141 204.47266 L 205.57422 200.20898 L 204.42773 198.85547 L 202.18359 196.76172 L 206.7168 191.59375 L 209.08594 193.54492 L 210.57812 194.50391 L 215.14648 196.54102 L 218.34766 192.37109 L 215.19727 188.48438 L 213.88281 187.29102 L 211.38477 185.50781 L 215.20312 179.79297 L 217.80859 181.41992 L 219.41211 182.17578 L 224.20703 183.59961 L 226.83594 179.04492 L 223.20508 175.60547 L 221.74805 174.59375 L 219.03906 173.15039 L 222.07812 166.98633 L 224.87305 168.25977 L 226.5625 168.79883 L 231.50195 169.58398 L 233.51367 164.72656 L 229.46484 161.78906 L 227.88867 160.97656 L 225.01367 159.90039 L 227.22266 153.39258 L 230.1582 154.28906 L 231.9043 154.60352 L 236.9043 154.73828 L 238.26562 149.66016 L 233.86914 147.27539 L 232.19922 146.67578 L 229.20898 145.98438 L 230.54883 139.24219 L 233.57617 139.74805 L 235.34766 139.83203 L 240.32422 139.3125 L 241.00977 134.09961 L 236.33984 132.31055 L 234.60547 131.93359 L 231.55078 131.63867 L 232 124.7793 L 235.06836 124.88672 L 236.83594 124.73828 L 241.69922 123.57422 L 241.69922 118.31641 L 236.83594 117.15039 L 235.06836 117.00391 L 232 117.10938 L 231.55078 110.25195 L 234.60547 109.95703 L 236.33984 109.58008 L 241.00977 107.78906 L 240.32422 102.57617 L 235.34766 102.05664 L 233.57617 102.14062 L 230.54883 102.64648 L 229.20898 95.90625 L 232.19922 95.214844 L 233.86914 94.615234 L 238.26562 92.230469 L 236.9043 87.152344 L 231.9043 87.285156 L 230.1582 87.601562 L 227.22266 88.498047 L 225.01367 81.988281 L 227.88867 80.912109 L 229.46484 80.099609 L 233.51367 77.162109 L 231.50195 72.304688 L 226.5625 73.089844 L 224.87305 73.630859 L 222.07812 74.902344 L 219.03906 68.738281 L 221.74805 67.296875 L 223.20508 66.285156 L 226.83594 62.84375 L 224.20703 58.291016 L 219.41211 59.714844 L 217.80859 60.470703 L 215.20312 62.095703 L 211.38477 56.380859 L 213.88281 54.597656 L 215.19727 53.404297 L 218.34766 49.519531 L 215.14648 45.347656 L 210.57812 47.384766 L 209.08594 48.34375 L 206.7168 50.296875 L 202.18359 45.128906 L 204.42773 43.035156 L 205.57422 41.681641 L 208.19141 37.416016 L 204.47266 33.699219 L 200.20898 36.314453 L 198.85547 37.460938 L 196.76172 39.705078 L 191.59375 35.173828 L 193.54492 32.804688 L 194.50391 31.3125 L 196.54102 26.744141 L 192.37109 23.542969 L 188.48438 26.693359 L 187.29102 28.005859 L 185.50781 30.503906 L 179.79297 26.685547 L 181.41992 24.082031 L 182.17578 22.478516 L 183.59961 17.681641 L 179.04492 15.052734 L 175.60547 18.683594 L 174.59375 20.140625 L 173.15039 22.851562 L 166.98633 19.810547 L 168.25977 17.017578 L 168.79883 15.328125 L 169.58398 10.386719 L 164.72656 8.375 L 161.78906 12.423828 L 160.97656 14 L 159.90039 16.875 L 153.39258 14.666016 L 154.28906 11.730469 L 154.60352 9.984375 L 154.73828 4.984375 L 149.66016 3.6230469 L 147.27539 8.0214844 L 146.67578 9.6914062 L 145.98438 12.681641 L 139.24219 11.339844 L 139.74805 8.3125 L 139.83203 6.5410156 L 139.3125 1.5664062 L 134.09961 0.87890625 L 132.31055 5.5507812 L 131.93359 7.2832031 L 131.63867 10.339844 L 124.7793 9.890625 L 124.88672 6.8222656 L 124.73828 5.0546875 L 123.57422 0.18945312 L 118.31641 0.18945312 z M 120.94531 23.804688 A 97.140111 97.140111 0 0 1 218.08594 120.94531 A 97.140111 97.140111 0 0 1 120.94531 218.08594 A 97.140111 97.140111 0 0 1 23.804688 120.94531 A 97.140111 97.140111 0 0 1 120.94531 23.804688 z "
         transform="matrix(0.69727457,0,0,0.69727457,-84.331794,-84.331791)" />
    </g>
  </g>
</svg>
